<?xml version="1.0" encoding="UTF-8"?>
<!--Generator: Apple Native CoreSVG 123-->
<!DOCTYPE svg
PUBLIC "-//W3C//DTD SVG 1.1//EN"
       "http://www.w3.org/Graphics/SVG/1.1/DTD/svg11.dtd">
<svg version="1.1" xmlns="http://www.w3.org/2000/svg" xmlns:xlink="http://www.w3.org/1999/xlink" width="3300" height="2200">
 <!--glyph: "uni100203.medium", point size: 100.000000, font version: "Version 15.0d7e11", template writer version: "5"-->
 <g id="Notes">
  <rect height="2200" id="artboard" style="fill:white;opacity:1" width="3300" x="0" y="0"/>
  <line id="" style="fill:none;stroke:black;opacity:1;stroke-width:0.5;" x1="263" x2="3036" y1="292" y2="292"/>
  <text style="stroke:none;fill:black;font-family:-apple-system,&quot;SF Pro Display&quot;,&quot;SF Pro Text&quot;,Helvetica,sans-serif;font-weight:bold;" transform="matrix(1 0 0 1 263 322)">Weight/Scale Variations</text>
  <text style="stroke:none;fill:black;font-family:-apple-system,&quot;SF Pro Display&quot;,&quot;SF Pro Text&quot;,Helvetica,sans-serif;text-anchor:middle;" transform="matrix(1 0 0 1 559.711 322)">Ultralight</text>
  <text style="stroke:none;fill:black;font-family:-apple-system,&quot;SF Pro Display&quot;,&quot;SF Pro Text&quot;,Helvetica,sans-serif;text-anchor:middle;" transform="matrix(1 0 0 1 856.422 322)">Thin</text>
  <text style="stroke:none;fill:black;font-family:-apple-system,&quot;SF Pro Display&quot;,&quot;SF Pro Text&quot;,Helvetica,sans-serif;text-anchor:middle;" transform="matrix(1 0 0 1 1153.13 322)">Light</text>
  <text style="stroke:none;fill:black;font-family:-apple-system,&quot;SF Pro Display&quot;,&quot;SF Pro Text&quot;,Helvetica,sans-serif;text-anchor:middle;" transform="matrix(1 0 0 1 1449.84 322)">Regular</text>
  <text style="stroke:none;fill:black;font-family:-apple-system,&quot;SF Pro Display&quot;,&quot;SF Pro Text&quot;,Helvetica,sans-serif;text-anchor:middle;" transform="matrix(1 0 0 1 1746.56 322)">Medium</text>
  <text style="stroke:none;fill:black;font-family:-apple-system,&quot;SF Pro Display&quot;,&quot;SF Pro Text&quot;,Helvetica,sans-serif;text-anchor:middle;" transform="matrix(1 0 0 1 2043.27 322)">Semibold</text>
  <text style="stroke:none;fill:black;font-family:-apple-system,&quot;SF Pro Display&quot;,&quot;SF Pro Text&quot;,Helvetica,sans-serif;text-anchor:middle;" transform="matrix(1 0 0 1 2339.98 322)">Bold</text>
  <text style="stroke:none;fill:black;font-family:-apple-system,&quot;SF Pro Display&quot;,&quot;SF Pro Text&quot;,Helvetica,sans-serif;text-anchor:middle;" transform="matrix(1 0 0 1 2636.69 322)">Heavy</text>
  <text style="stroke:none;fill:black;font-family:-apple-system,&quot;SF Pro Display&quot;,&quot;SF Pro Text&quot;,Helvetica,sans-serif;text-anchor:middle;" transform="matrix(1 0 0 1 2933.4 322)">Black</text>
  <line id="" style="fill:none;stroke:black;opacity:1;stroke-width:0.5;" x1="263" x2="3036" y1="1903" y2="1903"/>
  <g id="" transform="matrix(1 0 0 1 263 1933)">
   <path d="M 9.24805 0.830078 C 13.5547 0.830078 17.1387 -2.74414 17.1387 -7.05078 C 17.1387 -11.3574 13.5449 -14.9316 9.23828 -14.9316 C 4.94141 -14.9316 1.36719 -11.3574 1.36719 -7.05078 C 1.36719 -2.74414 4.95117 0.830078 9.24805 0.830078 Z M 9.24805 -0.654297 C 5.70312 -0.654297 2.87109 -3.49609 2.87109 -7.05078 C 2.87109 -10.6055 5.69336 -13.4473 9.23828 -13.4473 C 12.793 -13.4473 15.6348 -10.6055 15.6445 -7.05078 C 15.6543 -3.49609 12.8027 -0.654297 9.24805 -0.654297 Z M 9.22852 -3.42773 C 9.69727 -3.42773 9.9707 -3.74023 9.9707 -4.25781 L 9.9707 -6.31836 L 12.1973 -6.31836 C 12.6953 -6.31836 13.0371 -6.57227 13.0371 -7.04102 C 13.0371 -7.51953 12.7148 -7.7832 12.1973 -7.7832 L 9.9707 -7.7832 L 9.9707 -10.0098 C 9.9707 -10.5273 9.69727 -10.8496 9.22852 -10.8496 C 8.75977 -10.8496 8.50586 -10.5078 8.50586 -10.0098 L 8.50586 -7.7832 L 6.29883 -7.7832 C 5.78125 -7.7832 5.44922 -7.51953 5.44922 -7.04102 C 5.44922 -6.57227 5.80078 -6.31836 6.29883 -6.31836 L 8.50586 -6.31836 L 8.50586 -4.25781 C 8.50586 -3.75977 8.75977 -3.42773 9.22852 -3.42773 Z"/>
  </g>
  <g id="" transform="matrix(1 0 0 1 281.506 1933)">
   <path d="M 11.709 2.91016 C 17.1582 2.91016 21.6699 -1.60156 21.6699 -7.05078 C 21.6699 -12.4902 17.1484 -17.0117 11.6992 -17.0117 C 6.25977 -17.0117 1.74805 -12.4902 1.74805 -7.05078 C 1.74805 -1.60156 6.26953 2.91016 11.709 2.91016 Z M 11.709 1.25 C 7.09961 1.25 3.41797 -2.44141 3.41797 -7.05078 C 3.41797 -11.6504 7.08984 -15.3516 11.6992 -15.3516 C 16.3086 -15.3516 20 -11.6504 20.0098 -7.05078 C 20.0195 -2.44141 16.3184 1.25 11.709 1.25 Z M 11.6895 -2.41211 C 12.207 -2.41211 12.5195 -2.77344 12.5195 -3.33984 L 12.5195 -6.23047 L 15.5762 -6.23047 C 16.123 -6.23047 16.5039 -6.51367 16.5039 -7.03125 C 16.5039 -7.55859 16.1426 -7.86133 15.5762 -7.86133 L 12.5195 -7.86133 L 12.5195 -10.9277 C 12.5195 -11.5039 12.207 -11.8555 11.6895 -11.8555 C 11.1719 -11.8555 10.8789 -11.4844 10.8789 -10.9277 L 10.8789 -7.86133 L 7.83203 -7.86133 C 7.26562 -7.86133 6.89453 -7.55859 6.89453 -7.03125 C 6.89453 -6.51367 7.28516 -6.23047 7.83203 -6.23047 L 10.8789 -6.23047 L 10.8789 -3.33984 C 10.8789 -2.79297 11.1719 -2.41211 11.6895 -2.41211 Z"/>
  </g>
  <g id="" transform="matrix(1 0 0 1 304.924 1933)">
   <path d="M 14.9707 5.67383 C 21.9336 5.67383 27.6953 -0.078125 27.6953 -7.04102 C 27.6953 -14.0039 21.9238 -19.7559 14.9609 -19.7559 C 8.00781 -19.7559 2.25586 -14.0039 2.25586 -7.04102 C 2.25586 -0.078125 8.01758 5.67383 14.9707 5.67383 Z M 14.9707 3.85742 C 8.93555 3.85742 4.08203 -1.00586 4.08203 -7.04102 C 4.08203 -13.0762 8.92578 -17.9395 14.9609 -17.9395 C 21.0059 -17.9395 25.8594 -13.0762 25.8691 -7.04102 C 25.8789 -1.00586 21.0156 3.85742 14.9707 3.85742 Z M 14.9512 -1.06445 C 15.5176 -1.06445 15.8691 -1.45508 15.8691 -2.06055 L 15.8691 -6.13281 L 20.1074 -6.13281 C 20.6934 -6.13281 21.1133 -6.46484 21.1133 -7.02148 C 21.1133 -7.59766 20.7227 -7.93945 20.1074 -7.93945 L 15.8691 -7.93945 L 15.8691 -12.1875 C 15.8691 -12.8027 15.5176 -13.1934 14.9512 -13.1934 C 14.3848 -13.1934 14.0625 -12.7832 14.0625 -12.1875 L 14.0625 -7.93945 L 9.83398 -7.93945 C 9.21875 -7.93945 8.80859 -7.59766 8.80859 -7.02148 C 8.80859 -6.46484 9.23828 -6.13281 9.83398 -6.13281 L 14.0625 -6.13281 L 14.0625 -2.06055 C 14.0625 -1.47461 14.3848 -1.06445 14.9512 -1.06445 Z"/>
  </g>
  <text style="stroke:none;fill:black;font-family:-apple-system,&quot;SF Pro Display&quot;,&quot;SF Pro Text&quot;,Helvetica,sans-serif;font-weight:bold;" transform="matrix(1 0 0 1 263 1953)">Design Variations</text>
  <text style="stroke:none;fill:black;font-family:-apple-system,&quot;SF Pro Display&quot;,&quot;SF Pro Text&quot;,Helvetica,sans-serif;" transform="matrix(1 0 0 1 263 1971)">Symbols are supported in up to nine weights and three scales.</text>
  <text style="stroke:none;fill:black;font-family:-apple-system,&quot;SF Pro Display&quot;,&quot;SF Pro Text&quot;,Helvetica,sans-serif;" transform="matrix(1 0 0 1 263 1989)">For optimal layout with text and other symbols, vertically align</text>
  <text style="stroke:none;fill:black;font-family:-apple-system,&quot;SF Pro Display&quot;,&quot;SF Pro Text&quot;,Helvetica,sans-serif;" transform="matrix(1 0 0 1 263 2007)">symbols with the adjacent text.</text>
  <rect height="14" id="" style="fill:#00AEEF;stroke:none;opacity:0.4;" width="3" x="776" y="1919"/>
  <g id="" transform="matrix(1 0 0 1 779 1933)">
   <path d="M 10.5273 0 L 12.373 0 L 7.17773 -14.0918 L 5.43945 -14.0918 L 0.244141 0 L 2.08984 0 L 3.50586 -4.0332 L 9.11133 -4.0332 Z M 6.2793 -11.9531 L 6.33789 -11.9531 L 8.59375 -5.52734 L 4.02344 -5.52734 Z"/>
  </g>
  <rect height="14" id="" style="fill:#00AEEF;stroke:none;opacity:0.4;" width="3" x="791.617" y="1919"/>
  <text style="stroke:none;fill:black;font-family:-apple-system,&quot;SF Pro Display&quot;,&quot;SF Pro Text&quot;,Helvetica,sans-serif;font-weight:bold;" transform="matrix(1 0 0 1 776 1953)">Margins</text>
  <text style="stroke:none;fill:black;font-family:-apple-system,&quot;SF Pro Display&quot;,&quot;SF Pro Text&quot;,Helvetica,sans-serif;" transform="matrix(1 0 0 1 776 1971)">Leading and trailing margins on the left and right side of each symbol</text>
  <text style="stroke:none;fill:black;font-family:-apple-system,&quot;SF Pro Display&quot;,&quot;SF Pro Text&quot;,Helvetica,sans-serif;" transform="matrix(1 0 0 1 776 1989)">can be adjusted by modifying the width of the blue rectangles.</text>
  <text style="stroke:none;fill:black;font-family:-apple-system,&quot;SF Pro Display&quot;,&quot;SF Pro Text&quot;,Helvetica,sans-serif;" transform="matrix(1 0 0 1 776 2007)">Modifications are automatically applied proportionally to all</text>
  <text style="stroke:none;fill:black;font-family:-apple-system,&quot;SF Pro Display&quot;,&quot;SF Pro Text&quot;,Helvetica,sans-serif;" transform="matrix(1 0 0 1 776 2025)">scales and weights.</text>
  <g id="" transform="matrix(1 0 0 1 1289 1933)">
   <path d="M 2.83203 3.11523 L 4.375 4.6582 C 5.22461 5.48828 6.19141 5.41992 7.06055 4.46289 L 17.2754 -6.66016 C 17.7051 -6.36719 18.0957 -6.37695 18.5645 -6.47461 L 19.6094 -6.68945 L 20.3027 -5.99609 L 20.2539 -5.47852 C 20.1855 -4.95117 20.3516 -4.53125 20.8496 -4.0332 L 21.6602 -3.22266 C 22.168 -2.71484 22.8223 -2.68555 23.3008 -3.16406 L 26.5527 -6.41602 C 27.0312 -6.89453 27.0117 -7.54883 26.5039 -8.05664 L 25.6836 -8.87695 C 25.1855 -9.375 24.7754 -9.55078 24.2383 -9.47266 L 23.7109 -9.41406 L 23.0566 -10.0781 L 23.3398 -11.2207 C 23.4863 -11.7871 23.3398 -12.2559 22.7148 -12.8613 L 20.3027 -15.2539 C 16.7578 -18.7793 12.2266 -18.6719 9.11133 -15.5371 C 8.69141 -15.1074 8.64258 -14.5215 8.91602 -14.0918 C 9.15039 -13.7207 9.62891 -13.4961 10.2734 -13.6621 C 11.7871 -14.043 13.3008 -13.9258 14.7852 -12.9199 L 14.1602 -11.3379 C 13.9258 -10.752 13.9453 -10.2734 14.1797 -9.83398 L 3.01758 0.439453 C 2.08008 1.30859 1.97266 2.25586 2.83203 3.11523 Z M 10.6738 -15.1465 C 13.3398 -17.1387 16.6504 -16.8262 19.0527 -14.4141 L 21.6797 -11.8066 C 21.9141 -11.5723 21.9434 -11.3867 21.8848 -11.0938 L 21.5039 -9.53125 L 23.0762 -7.95898 L 24.043 -8.04688 C 24.3262 -8.07617 24.4141 -8.05664 24.6387 -7.83203 L 25.2637 -7.20703 L 22.5098 -4.46289 L 21.8848 -5.07812 C 21.6602 -5.30273 21.6406 -5.40039 21.6699 -5.68359 L 21.7578 -6.64062 L 20.1953 -8.20312 L 18.5742 -7.89062 C 18.291 -7.83203 18.1445 -7.83203 17.9102 -8.07617 L 15.7324 -10.2539 C 15.5078 -10.4883 15.4785 -10.625 15.6055 -10.9473 L 16.5527 -13.2227 C 14.9512 -14.7559 12.8418 -15.6055 10.8008 -14.9512 C 10.7129 -14.9219 10.6445 -14.9414 10.6152 -14.9805 C 10.5859 -15.0293 10.5859 -15.0781 10.6738 -15.1465 Z M 4.10156 2.41211 C 3.61328 1.91406 3.78906 1.61133 4.12109 1.30859 L 15.0781 -8.80859 L 16.3086 -7.57812 L 6.15234 3.34961 C 5.84961 3.68164 5.46875 3.7793 5.06836 3.37891 Z"/>
  </g>
  <text style="stroke:none;fill:black;font-family:-apple-system,&quot;SF Pro Display&quot;,&quot;SF Pro Text&quot;,Helvetica,sans-serif;font-weight:bold;" transform="matrix(1 0 0 1 1289 1953)">Exporting</text>
  <text style="stroke:none;fill:black;font-family:-apple-system,&quot;SF Pro Display&quot;,&quot;SF Pro Text&quot;,Helvetica,sans-serif;" transform="matrix(1 0 0 1 1289 1971)">Symbols should be outlined when exporting to ensure the</text>
  <text style="stroke:none;fill:black;font-family:-apple-system,&quot;SF Pro Display&quot;,&quot;SF Pro Text&quot;,Helvetica,sans-serif;" transform="matrix(1 0 0 1 1289 1989)">design is preserved when submitting to Xcode.</text>
  <text id="template-version" style="stroke:none;fill:black;font-family:-apple-system,&quot;SF Pro Display&quot;,&quot;SF Pro Text&quot;,Helvetica,sans-serif;text-anchor:end;" transform="matrix(1 0 0 1 3036 1933)">Template v.1.0</text>
  <text style="stroke:none;fill:black;font-family:-apple-system,&quot;SF Pro Display&quot;,&quot;SF Pro Text&quot;,Helvetica,sans-serif;text-anchor:end;" transform="matrix(1 0 0 1 3036 1951)">Generated from square.and.arrow.up.fill</text>
  <text style="stroke:none;fill:black;font-family:-apple-system,&quot;SF Pro Display&quot;,&quot;SF Pro Text&quot;,Helvetica,sans-serif;text-anchor:end;" transform="matrix(1 0 0 1 3036 1969)">Typeset at 100 points</text>
  <text style="stroke:none;fill:black;font-family:-apple-system,&quot;SF Pro Display&quot;,&quot;SF Pro Text&quot;,Helvetica,sans-serif;" transform="matrix(1 0 0 1 263 726)">Small</text>
  <text style="stroke:none;fill:black;font-family:-apple-system,&quot;SF Pro Display&quot;,&quot;SF Pro Text&quot;,Helvetica,sans-serif;" transform="matrix(1 0 0 1 263 1156)">Medium</text>
  <text style="stroke:none;fill:black;font-family:-apple-system,&quot;SF Pro Display&quot;,&quot;SF Pro Text&quot;,Helvetica,sans-serif;" transform="matrix(1 0 0 1 263 1586)">Large</text>
 </g>
 <g id="Guides">
  <g id="H-reference" style="fill:#27AAE1;stroke:none;" transform="matrix(1 0 0 1 339 696)">
   <path d="M 54.9316 0 L 57.666 0 L 30.5664 -70.459 L 28.0762 -70.459 L 0.976562 0 L 3.66211 0 L 12.9395 -24.4629 L 45.7031 -24.4629 Z M 29.1992 -67.0898 L 29.4434 -67.0898 L 44.8242 -26.709 L 13.8184 -26.709 Z"/>
  </g>
  <line id="Baseline-S" style="fill:none;stroke:#27AAE1;opacity:1;stroke-width:0.577;" x1="263" x2="3036" y1="696" y2="696"/>
  <line id="Capline-S" style="fill:none;stroke:#27AAE1;opacity:1;stroke-width:0.577;" x1="263" x2="3036" y1="625.541" y2="625.541"/>
  <g id="H-reference" style="fill:#27AAE1;stroke:none;" transform="matrix(1 0 0 1 339 1126)">
   <path d="M 54.9316 0 L 57.666 0 L 30.5664 -70.459 L 28.0762 -70.459 L 0.976562 0 L 3.66211 0 L 12.9395 -24.4629 L 45.7031 -24.4629 Z M 29.1992 -67.0898 L 29.4434 -67.0898 L 44.8242 -26.709 L 13.8184 -26.709 Z"/>
  </g>
  <line id="Baseline-M" style="fill:none;stroke:#27AAE1;opacity:1;stroke-width:0.577;" x1="263" x2="3036" y1="1126" y2="1126"/>
  <line id="Capline-M" style="fill:none;stroke:#27AAE1;opacity:1;stroke-width:0.577;" x1="263" x2="3036" y1="1055.54" y2="1055.54"/>
  <g id="H-reference" style="fill:#27AAE1;stroke:none;" transform="matrix(1 0 0 1 339 1556)">
   <path d="M 54.9316 0 L 57.666 0 L 30.5664 -70.459 L 28.0762 -70.459 L 0.976562 0 L 3.66211 0 L 12.9395 -24.4629 L 45.7031 -24.4629 Z M 29.1992 -67.0898 L 29.4434 -67.0898 L 44.8242 -26.709 L 13.8184 -26.709 Z"/>
  </g>
  <line id="Baseline-L" style="fill:none;stroke:#27AAE1;opacity:1;stroke-width:0.577;" x1="263" x2="3036" y1="1556" y2="1556"/>
  <line id="Capline-L" style="fill:none;stroke:#27AAE1;opacity:1;stroke-width:0.577;" x1="263" x2="3036" y1="1485.54" y2="1485.54"/>
  <rect height="119.336" id="left-margin" style="fill:#00AEEF;stroke:none;opacity:0.4;" width="12.4512" x="1394.06" y="1030.79"/>
  <rect height="119.336" id="right-margin" style="fill:#00AEEF;stroke:none;opacity:0.4;" width="12.4512" x="1493.18" y="1030.79"/>
 </g>
 <g id="Symbols">
  <g id="Black-L" transform="matrix(1 0 0 1 2856.76 1556)">
   <path d="M 76.8555 -58.8867 C 81.8359 -58.8867 85.6934 -62.9395 85.6934 -67.5781 L 85.6934 -87.7441 L 84.9121 -96.9727 L 87.4023 -92.041 L 93.6523 -85.3516 C 95.1172 -83.7891 97.1191 -82.8613 99.3164 -82.8613 C 103.174 -82.8613 106.836 -85.791 106.836 -90.0879 C 106.836 -92.2852 106.006 -93.8477 104.541 -95.3125 L 84.0332 -114.941 C 81.6895 -117.188 79.2969 -118.066 76.8555 -118.066 C 74.4629 -118.066 72.0703 -117.188 69.7266 -114.941 L 49.2188 -95.3125 C 47.7051 -93.8477 46.9238 -92.2852 46.9238 -90.0879 C 46.9238 -85.791 50.5371 -82.8613 54.3945 -82.8613 C 56.5918 -82.8613 58.5938 -83.7891 60.0586 -85.3516 L 66.3574 -92.041 L 68.8477 -96.9727 L 68.0664 -87.7441 L 68.0664 -67.5781 C 68.0664 -62.9395 71.9238 -58.8867 76.8555 -58.8867 Z M 39.9902 33.1055 L 113.33 33.1055 C 128.564 33.1055 137.207 24.5117 137.207 9.32617 L 137.207 -46.7773 C 137.207 -61.9629 128.564 -70.5566 113.33 -70.5566 L 87.8906 -70.5566 L 87.8906 -27.7832 C 87.8906 -21.7773 82.9102 -16.8457 76.8555 -16.8457 C 70.8496 -16.8457 65.8691 -21.7773 65.8691 -27.7832 L 65.8691 -70.5566 L 39.9902 -70.5566 C 24.7559 -70.5566 16.0645 -61.9629 16.0645 -46.7773 L 16.0645 9.32617 C 16.0645 24.5117 24.7559 33.1055 39.9902 33.1055 Z"/>
  </g>
  <g id="Heavy-L" transform="matrix(1 0 0 1 2561.32 1556)">
   <path d="M 75.5371 -60.4492 C 79.8828 -60.4492 83.3008 -64.0137 83.3008 -68.1152 L 83.3008 -88.0859 L 82.6172 -97.2656 L 85.7422 -92.2852 L 92.9688 -84.6191 C 94.2383 -83.2031 96.0449 -82.4219 97.998 -82.4219 C 101.416 -82.4219 104.639 -85.0098 104.639 -88.8184 C 104.639 -90.7715 103.906 -92.1387 102.588 -93.457 L 81.7383 -113.477 C 79.6875 -115.479 77.6367 -116.211 75.5371 -116.211 C 73.4863 -116.211 71.4355 -115.479 69.3848 -113.477 L 48.5352 -93.457 C 47.2168 -92.1387 46.4844 -90.7715 46.4844 -88.8184 C 46.4844 -85.0098 49.6582 -82.4219 53.125 -82.4219 C 55.0293 -82.4219 56.8359 -83.2031 58.1543 -84.6191 L 65.3809 -92.2852 L 68.5059 -97.2656 L 67.8223 -88.0859 L 67.8223 -68.1152 C 67.8223 -64.0137 71.2402 -60.4492 75.5371 -60.4492 Z M 38.8184 32.5195 L 111.914 32.5195 C 126.562 32.5195 134.668 24.4141 134.668 9.91211 L 134.668 -47.8027 C 134.668 -62.3047 126.562 -70.4102 111.914 -70.4102 L 85.3027 -70.4102 L 85.3027 -26.5137 C 85.3027 -21.1914 80.8594 -16.8945 75.5371 -16.8945 C 70.2637 -16.8945 65.8203 -21.1914 65.8203 -26.5137 L 65.8203 -70.4102 L 38.8184 -70.4102 C 24.2188 -70.4102 16.0645 -62.3535 16.0645 -47.8027 L 16.0645 9.91211 C 16.0645 24.4629 24.2188 32.5195 38.8184 32.5195 Z"/>
  </g>
  <g id="Bold-L" transform="matrix(1 0 0 1 2266 1556)">
   <path d="M 74.0723 -62.2559 C 77.7344 -62.2559 80.6641 -65.2344 80.6641 -68.7012 L 80.6641 -88.4277 L 80.0781 -97.6562 L 83.8867 -92.5293 L 92.1875 -83.7891 C 93.2617 -82.5684 94.8242 -81.8848 96.4844 -81.8848 C 99.5117 -81.8848 102.197 -84.1797 102.197 -87.4023 C 102.197 -89.0625 101.562 -90.2832 100.391 -91.4551 L 79.1992 -111.865 C 77.5391 -113.574 75.8301 -114.16 74.0723 -114.16 C 72.3633 -114.16 70.6543 -113.574 68.9941 -111.865 L 47.7539 -91.4551 C 46.6309 -90.2832 45.9961 -89.0625 45.9961 -87.4023 C 45.9961 -84.1797 48.6328 -81.8848 51.6602 -81.8848 C 53.3203 -81.8848 54.8828 -82.5684 56.0059 -83.7891 L 64.2578 -92.5293 L 68.1152 -97.6562 L 67.5293 -88.4277 L 67.5293 -68.7012 C 67.5293 -65.2344 70.459 -62.2559 74.0723 -62.2559 Z M 37.5 31.8848 L 110.4 31.8848 C 124.365 31.8848 131.885 24.3652 131.885 10.5469 L 131.885 -48.9258 C 131.885 -62.7441 124.365 -70.2148 110.4 -70.2148 L 82.373 -70.2148 L 82.373 -25.0977 C 82.373 -20.6055 78.6133 -16.8945 74.0723 -16.8945 C 69.5801 -16.8945 65.8203 -20.6055 65.8203 -25.0977 L 65.8203 -70.2148 L 37.5 -70.2148 C 23.6328 -70.2148 16.0645 -62.7441 16.0645 -48.9258 L 16.0645 10.5469 C 16.0645 24.4141 23.6328 31.8848 37.5 31.8848 Z"/>
  </g>
  <g id="Semibold-L" transform="matrix(1 0 0 1 1970.27 1556)">
   <path d="M 73.0957 -63.4766 C 76.2695 -63.4766 78.8086 -66.0645 78.8086 -69.0918 L 78.8086 -88.6719 L 78.3203 -97.9004 L 82.6172 -92.7246 L 91.6016 -83.252 C 92.627 -82.1289 93.9941 -81.543 95.4102 -81.543 C 98.1445 -81.543 100.488 -83.5938 100.488 -86.4258 C 100.488 -87.9395 99.9023 -89.0137 98.877 -90.0391 L 77.4902 -110.791 C 76.0254 -112.207 74.6094 -112.744 73.0957 -112.744 C 71.582 -112.744 70.166 -112.207 68.7012 -110.791 L 47.2656 -90.0391 C 46.2402 -89.0137 45.6543 -87.9395 45.6543 -86.4258 C 45.6543 -83.5938 47.9492 -81.543 50.6836 -81.543 C 52.0996 -81.543 53.5645 -82.1289 54.541 -83.252 L 63.5254 -92.7246 L 67.8223 -97.9004 L 67.3828 -88.6719 L 67.3828 -69.0918 C 67.3828 -66.0645 69.9219 -63.4766 73.0957 -63.4766 Z M 36.6211 31.3965 L 109.326 31.3965 C 122.803 31.3965 129.932 24.3164 129.932 10.9863 L 129.932 -49.707 C 129.932 -62.9883 122.803 -70.1172 109.326 -70.1172 L 80.3711 -70.1172 L 80.3711 -24.1211 C 80.3711 -20.166 77.0508 -16.8945 73.0957 -16.8945 C 69.0918 -16.8945 65.7715 -20.166 65.7715 -24.1211 L 65.7715 -70.1172 L 36.6211 -70.1172 C 23.1934 -70.1172 16.0645 -63.0371 16.0645 -49.707 L 16.0645 10.9863 C 16.0645 24.3652 23.1934 31.3965 36.6211 31.3965 Z"/>
  </g>
  <g id="Medium-L" transform="matrix(1 0 0 1 1674.31 1556)">
   <path d="M 72.3145 -64.4531 C 75.0977 -64.4531 77.3926 -66.748 77.3926 -69.4336 L 77.3926 -88.8672 L 77.002 -98.0957 L 81.6406 -92.8711 L 91.2109 -82.8125 C 92.0898 -81.8359 93.3594 -81.2988 94.6289 -81.2988 C 97.1191 -81.2988 99.2188 -83.1543 99.2188 -85.6934 C 99.2188 -87.0605 98.6816 -88.0371 97.7539 -88.9648 L 76.1719 -109.961 C 74.8535 -111.23 73.6328 -111.67 72.3145 -111.67 C 70.9961 -111.67 69.7754 -111.23 68.5059 -109.961 L 46.875 -88.9648 C 45.9473 -88.0371 45.4102 -87.0605 45.4102 -85.6934 C 45.4102 -83.1543 47.4121 -81.2988 49.9512 -81.2988 C 51.1719 -81.2988 52.4902 -81.8359 53.418 -82.8125 L 62.9395 -92.8711 L 67.627 -98.0957 L 67.2363 -88.8672 L 67.2363 -69.4336 C 67.2363 -66.748 69.5312 -64.4531 72.3145 -64.4531 Z M 35.9375 31.0547 L 108.545 31.0547 C 121.68 31.0547 128.418 24.2676 128.418 11.3281 L 128.418 -50.293 C 128.418 -63.2324 121.68 -70.0195 108.545 -70.0195 L 78.8574 -70.0195 L 78.8574 -23.3398 C 78.8574 -19.8242 75.8789 -16.8945 72.3145 -16.8945 C 68.75 -16.8945 65.7715 -19.8242 65.7715 -23.3398 L 65.7715 -70.0195 L 35.9375 -70.0195 C 22.9004 -70.0195 16.0645 -63.2812 16.0645 -50.293 L 16.0645 11.3281 C 16.0645 24.3164 22.9004 31.0547 35.9375 31.0547 Z"/>
  </g>
  <g id="Regular-L" transform="matrix(1 0 0 1 1378.56 1556)">
   <path d="M 71.3379 -65.6738 C 73.6328 -65.6738 75.5859 -67.5781 75.5859 -69.8242 L 75.5859 -89.0625 L 75.293 -98.3398 L 80.3711 -93.0176 L 90.6738 -82.2754 C 91.4551 -81.3965 92.5781 -80.957 93.6035 -80.957 C 95.8008 -80.957 97.5098 -82.5684 97.5098 -84.7656 C 97.5098 -85.8887 97.0703 -86.7676 96.2402 -87.5977 L 74.4141 -108.838 C 73.3398 -109.912 72.4121 -110.254 71.3379 -110.254 C 70.2148 -110.254 69.2871 -109.912 68.2129 -108.838 L 46.3379 -87.5977 C 45.5566 -86.7676 45.0684 -85.8887 45.0684 -84.7656 C 45.0684 -82.5684 46.7285 -80.957 48.9746 -80.957 C 50 -80.957 51.1719 -81.3965 51.9531 -82.2754 L 62.207 -93.0176 L 67.3828 -98.3398 L 67.041 -89.0625 L 67.041 -69.8242 C 67.041 -67.5781 68.9941 -65.6738 71.3379 -65.6738 Z M 35.0586 30.6152 L 107.52 30.6152 C 120.166 30.6152 126.514 24.2188 126.514 11.7676 L 126.514 -51.0742 C 126.514 -63.4766 120.166 -69.873 107.52 -69.873 L 76.9043 -69.873 L 76.9043 -22.4121 C 76.9043 -19.4336 74.3164 -16.8945 71.3379 -16.8945 C 68.3105 -16.8945 65.7227 -19.4336 65.7227 -22.4121 L 65.7227 -69.873 L 35.0586 -69.873 C 22.4609 -69.873 16.0645 -63.5742 16.0645 -51.0742 L 16.0645 11.7676 C 16.0645 24.2676 22.4609 30.6152 35.0586 30.6152 Z"/>
  </g>
  <g id="Light-L" transform="matrix(1 0 0 1 1082.77 1556)">
   <path d="M 70.4102 -67.2363 C 72.2168 -67.2363 73.6816 -68.7012 73.6816 -70.459 L 73.6816 -90.918 L 73.4375 -99.9023 L 79.7852 -93.457 L 91.0645 -81.8848 C 91.6504 -81.25 92.5293 -80.8594 93.3105 -80.8594 C 94.9707 -80.8594 96.3379 -82.1289 96.3379 -83.7891 C 96.3379 -84.668 95.9961 -85.3516 95.3613 -85.9863 L 72.7539 -108.203 C 71.9727 -108.984 71.2402 -109.277 70.4102 -109.277 C 69.5801 -109.277 68.8477 -108.984 68.0664 -108.203 L 45.459 -85.9863 C 44.8242 -85.3516 44.4824 -84.668 44.4824 -83.7891 C 44.4824 -82.1289 45.7031 -80.8594 47.4121 -80.8594 C 48.2422 -80.8594 49.1211 -81.25 49.7559 -81.8848 L 61.0352 -93.457 L 67.3828 -99.9512 L 67.1387 -90.918 L 67.1387 -70.459 C 67.1387 -68.7012 68.6523 -67.2363 70.4102 -67.2363 Z M 34.0332 29.7852 L 106.689 29.7852 C 118.555 29.7852 124.658 23.6328 124.658 11.9141 L 124.658 -52.6367 C 124.658 -64.3066 118.555 -70.459 106.689 -70.459 L 74.8047 -70.459 L 74.8047 -21.5332 C 74.8047 -19.1895 72.8027 -17.1875 70.4102 -17.1875 C 68.0664 -17.1875 66.0156 -19.1895 66.0156 -21.5332 L 66.0156 -70.459 L 34.0332 -70.459 C 22.168 -70.459 16.0645 -64.4043 16.0645 -52.6367 L 16.0645 11.9141 C 16.0645 23.7305 22.168 29.7852 34.0332 29.7852 Z"/>
  </g>
  <g id="Thin-L" transform="matrix(1 0 0 1 787.282 1556)">
   <path d="M 69.2383 -69.2871 C 70.3125 -69.2871 71.1914 -70.166 71.1914 -71.2402 L 71.1914 -93.3594 L 71.0449 -102.002 L 78.9551 -94.043 L 91.5527 -81.3965 C 91.8945 -81.0059 92.4805 -80.7617 92.9688 -80.7617 C 93.8965 -80.7617 94.7266 -81.5918 94.7266 -82.5684 C 94.7266 -83.0566 94.5312 -83.4473 94.1406 -83.8379 L 70.6055 -107.373 C 70.166 -107.812 69.7266 -108.008 69.2383 -108.008 C 68.7012 -108.008 68.2617 -107.812 67.8223 -107.373 L 44.1895 -83.8379 C 43.8477 -83.4473 43.6035 -83.0566 43.6035 -82.5684 C 43.6035 -81.5918 44.3848 -80.7617 45.4102 -80.7617 C 45.8984 -80.7617 46.4355 -81.0059 46.8262 -81.3965 L 59.4238 -94.043 L 67.3828 -102.1 L 67.2363 -93.3594 L 67.2363 -71.2402 C 67.2363 -70.166 68.1641 -69.2871 69.2383 -69.2871 Z M 32.666 28.7109 L 105.615 28.7109 C 116.504 28.7109 122.217 22.8516 122.217 12.1094 L 122.217 -54.6875 C 122.217 -65.3809 116.504 -71.2402 105.615 -71.2402 L 72.0215 -71.2402 L 72.0215 -20.3613 C 72.0215 -18.8477 70.752 -17.5781 69.2383 -17.5781 C 67.7246 -17.5781 66.4062 -18.8477 66.4062 -20.3613 L 66.4062 -71.2402 L 32.666 -71.2402 C 21.7773 -71.2402 16.0645 -65.5273 16.0645 -54.6875 L 16.0645 12.1094 C 16.0645 22.998 21.7773 28.7109 32.666 28.7109 Z"/>
  </g>
  <g id="Ultralight-L" transform="matrix(1 0 0 1 491.205 1556)">
   <path d="M 68.6035 -70.3613 C 69.3359 -70.3613 69.873 -70.9473 69.873 -71.6797 L 69.873 -94.5801 L 69.8242 -103.125 L 78.5156 -94.3848 L 91.7969 -81.1523 C 92.041 -80.9082 92.4316 -80.6641 92.7734 -80.6641 C 93.3105 -80.6641 93.8965 -81.2988 93.8965 -81.9336 C 93.8965 -82.2266 93.7988 -82.4707 93.5547 -82.7637 L 69.4824 -106.982 C 69.2383 -107.178 68.9453 -107.324 68.6035 -107.324 C 68.3105 -107.324 67.9688 -107.178 67.7246 -106.982 L 43.6035 -82.7637 C 43.3105 -82.4707 43.2129 -82.2266 43.2129 -81.9336 C 43.2129 -81.2988 43.7012 -80.6641 44.3359 -80.6641 C 44.6777 -80.6641 45.0684 -80.9082 45.3613 -81.1523 L 58.5938 -94.3848 L 67.3828 -103.174 L 67.334 -94.5801 L 67.334 -71.6797 C 67.334 -70.9473 67.8711 -70.3613 68.6035 -70.3613 Z M 31.9824 28.1738 L 105.078 28.1738 C 115.43 28.1738 120.947 22.4609 120.947 12.207 L 120.947 -55.7129 C 120.947 -65.918 115.43 -71.6309 105.078 -71.6309 L 70.6543 -71.6309 L 70.6543 -19.7754 C 70.6543 -18.7012 69.6777 -17.7246 68.6035 -17.7246 C 67.5293 -17.7246 66.6016 -18.7012 66.6016 -19.7754 L 66.6016 -71.6309 L 31.9824 -71.6309 C 21.582 -71.6309 16.0645 -66.1133 16.0645 -55.7129 L 16.0645 12.207 C 16.0645 22.6074 21.582 28.1738 31.9824 28.1738 Z"/>
  </g>
  <g id="Black-M" transform="matrix(1 0 0 1 2872.8 1126)">
   <path d="M 60.8398 -52.2461 C 65.2832 -52.2461 68.6035 -55.8105 68.6035 -59.9121 L 68.6035 -76.5137 L 67.9199 -83.4473 L 69.6289 -79.1992 L 73.7305 -74.8535 C 75 -73.5352 76.709 -72.7051 78.6621 -72.7051 C 81.8359 -72.7051 85.1074 -75.1953 85.1074 -78.9062 C 85.1074 -80.8105 84.4238 -82.1289 83.2031 -83.3984 L 67.2852 -98.584 C 65.1855 -100.586 62.9883 -101.367 60.8398 -101.367 C 58.6914 -101.367 56.4941 -100.586 54.4434 -98.584 L 38.5254 -83.3984 C 37.3047 -82.1289 36.5723 -80.8105 36.5723 -78.9062 C 36.5723 -75.1953 39.8438 -72.7051 43.0664 -72.7051 C 45.0195 -72.7051 46.7285 -73.5352 47.9492 -74.8535 L 52.0996 -79.1992 L 53.8086 -83.4473 L 53.125 -76.5137 L 53.125 -59.9121 C 53.125 -55.8105 56.4453 -52.2461 60.8398 -52.2461 Z M 31.9824 18.1152 L 89.209 18.1152 C 101.465 18.1152 108.74 10.8398 108.74 -1.41602 L 108.74 -43.6523 C 108.74 -55.9082 101.465 -63.1836 89.209 -63.1836 L 70.459 -63.1836 L 70.459 -30.7129 C 70.459 -25.3906 66.1621 -21.1426 60.8398 -21.1426 C 55.5664 -21.1426 51.2207 -25.3906 51.2207 -30.7129 L 51.2207 -63.1836 L 31.9824 -63.1836 C 19.7266 -63.1836 12.4512 -55.9082 12.4512 -43.6523 L 12.4512 -1.41602 C 12.4512 10.8398 19.7266 18.1152 31.9824 18.1152 Z"/>
  </g>
  <g id="Heavy-M" transform="matrix(1 0 0 1 2577.22 1126)">
   <path d="M 59.668 -53.5645 C 63.5254 -53.5645 66.5039 -56.7383 66.5039 -60.3516 L 66.5039 -76.3672 L 65.8691 -83.3984 L 67.9688 -79.3457 L 72.9004 -74.1211 C 74.0234 -72.9492 75.5371 -72.2168 77.2461 -72.2168 C 80.1758 -72.2168 83.0566 -74.5117 83.0566 -77.7832 C 83.0566 -79.4922 82.4219 -80.6641 81.2988 -81.7871 L 65.2344 -97.168 C 63.4277 -98.9746 61.5234 -99.6094 59.668 -99.6094 C 57.8125 -99.6094 55.9082 -98.9746 54.1016 -97.168 L 38.0371 -81.7871 C 36.9141 -80.6641 36.2793 -79.4922 36.2793 -77.7832 C 36.2793 -74.5117 39.1602 -72.2168 42.041 -72.2168 C 43.7988 -72.2168 45.3125 -72.9492 46.4355 -74.1211 L 51.3184 -79.3457 L 53.418 -83.3984 L 52.832 -76.3672 L 52.832 -60.3516 C 52.832 -56.7383 55.8105 -53.5645 59.668 -53.5645 Z M 31.0059 17.6758 L 87.9395 17.6758 C 99.707 17.6758 106.494 10.9375 106.494 -0.830078 L 106.494 -44.3359 C 106.494 -56.0547 99.707 -62.8418 87.9395 -62.8418 L 68.2129 -62.8418 L 68.2129 -29.541 C 68.2129 -24.8535 64.3555 -21.0449 59.668 -21.0449 C 54.9805 -21.0449 51.123 -24.8535 51.123 -29.541 L 51.123 -62.8418 L 31.0059 -62.8418 C 19.2383 -62.8418 12.4512 -56.0547 12.4512 -44.3359 L 12.4512 -0.830078 C 12.4512 10.9375 19.2383 17.6758 31.0059 17.6758 Z"/>
  </g>
  <g id="Bold-M" transform="matrix(1 0 0 1 2281.8 1126)">
   <path d="M 58.3008 -55.0781 C 61.5723 -55.0781 64.1113 -57.7148 64.1113 -60.791 L 64.1113 -76.2207 L 63.623 -83.3496 L 66.1621 -79.4922 L 71.9238 -73.3398 C 72.9004 -72.3145 74.2188 -71.7285 75.6836 -71.7285 C 78.2715 -71.7285 80.7129 -73.6816 80.7129 -76.5137 C 80.7129 -77.9785 80.127 -79.0527 79.1504 -80.0293 L 62.9395 -95.6055 C 61.4258 -97.1191 59.9121 -97.6562 58.3008 -97.6562 C 56.7383 -97.6562 55.2246 -97.1191 53.7109 -95.6055 L 37.5 -80.0293 C 36.5234 -79.0527 35.9375 -77.9785 35.9375 -76.5137 C 35.9375 -73.6816 38.3301 -71.7285 40.918 -71.7285 C 42.3828 -71.7285 43.75 -72.3145 44.7266 -73.3398 L 50.4883 -79.4922 L 53.0273 -83.3496 L 52.4902 -76.2207 L 52.4902 -60.791 C 52.4902 -57.7148 55.0781 -55.0781 58.3008 -55.0781 Z M 29.8828 17.1875 L 86.5234 17.1875 C 97.7539 17.1875 103.906 10.9863 103.906 -0.146484 L 103.906 -45.1172 C 103.906 -56.2988 97.7539 -62.4512 86.5234 -62.4512 L 65.625 -62.4512 L 65.625 -28.2227 C 65.625 -24.2676 62.3047 -20.9961 58.3008 -20.9961 C 54.3457 -20.9961 51.0254 -24.2676 51.0254 -28.2227 L 51.0254 -62.4512 L 29.8828 -62.4512 C 18.6523 -62.4512 12.4512 -56.2988 12.4512 -45.1172 L 12.4512 -0.146484 C 12.4512 11.0352 18.6523 17.1875 29.8828 17.1875 Z"/>
  </g>
  <g id="Semibold-M" transform="matrix(1 0 0 1 1985.97 1126)">
   <path d="M 57.4219 -56.1035 C 60.2539 -56.1035 62.5 -58.4473 62.5 -61.1328 L 62.5 -76.123 L 62.0605 -83.3008 L 64.8926 -79.5898 L 71.2402 -72.8027 C 72.1191 -71.875 73.3398 -71.3379 74.6094 -71.3379 C 77.002 -71.3379 79.1016 -73.1445 79.1016 -75.6836 C 79.1016 -76.9531 78.5645 -77.9297 77.6855 -78.8574 L 61.377 -94.5312 C 60.0586 -95.8496 58.7402 -96.2891 57.4219 -96.2891 C 56.0547 -96.2891 54.7363 -95.8496 53.418 -94.5312 L 37.1094 -78.8574 C 36.2305 -77.9297 35.6934 -76.9531 35.6934 -75.6836 C 35.6934 -73.1445 37.7441 -71.3379 40.1855 -71.3379 C 41.4551 -71.3379 42.6758 -71.875 43.5547 -72.8027 L 49.9023 -79.5898 L 52.7344 -83.3008 L 52.2949 -76.123 L 52.2949 -61.1328 C 52.2949 -58.4473 54.5898 -56.1035 57.4219 -56.1035 Z M 29.1016 16.8457 L 85.498 16.8457 C 96.3867 16.8457 102.148 11.084 102.148 0.292969 L 102.148 -45.6543 C 102.148 -56.4453 96.3867 -62.207 85.498 -62.207 L 63.8672 -62.207 L 63.8672 -27.3438 C 63.8672 -23.8281 60.9375 -20.9473 57.4219 -20.9473 C 53.8574 -20.9473 50.9277 -23.8281 50.9277 -27.3438 L 50.9277 -62.207 L 29.1016 -62.207 C 18.2617 -62.207 12.4512 -56.4453 12.4512 -45.6543 L 12.4512 0.292969 C 12.4512 11.084 18.2617 16.8457 29.1016 16.8457 Z"/>
  </g>
  <g id="Medium-M" transform="matrix(1 0 0 1 1689.91 1126)">
   <path d="M 56.6895 -56.8848 C 59.2285 -56.8848 61.2793 -58.9355 61.2793 -61.377 L 61.2793 -76.0254 L 60.8887 -83.252 L 63.916 -79.6875 L 70.7031 -72.4121 C 71.5332 -71.5332 72.6562 -71.0938 73.7793 -71.0938 C 76.0254 -71.0938 77.8809 -72.7051 77.8809 -75 C 77.8809 -76.2207 77.3926 -77.0996 76.5625 -77.9297 L 60.1562 -93.7012 C 58.9844 -94.873 57.9102 -95.2637 56.6895 -95.2637 C 55.5176 -95.2637 54.3945 -94.873 53.2227 -93.7012 L 36.8164 -77.9297 C 35.9863 -77.0996 35.5469 -76.2207 35.5469 -75 C 35.5469 -72.7051 37.3535 -71.0938 39.5996 -71.0938 C 40.7227 -71.0938 41.8945 -71.5332 42.6758 -72.4121 L 49.4629 -79.6875 L 52.4902 -83.3008 L 52.1484 -76.0254 L 52.1484 -61.377 C 52.1484 -58.9355 54.1992 -56.8848 56.6895 -56.8848 Z M 28.5156 16.6016 L 84.7656 16.6016 C 95.3613 16.6016 100.83 11.1328 100.83 0.683594 L 100.83 -46.0938 C 100.83 -56.543 95.3613 -62.0117 84.7656 -62.0117 L 62.5488 -62.0117 L 62.5488 -26.6602 C 62.5488 -23.5352 59.8633 -20.9473 56.6895 -20.9473 C 53.5156 -20.9473 50.8789 -23.5352 50.8789 -26.6602 L 50.8789 -62.0117 L 28.5156 -62.0117 C 17.9688 -62.0117 12.4512 -56.543 12.4512 -46.0938 L 12.4512 0.683594 C 12.4512 11.1328 17.9688 16.6016 28.5156 16.6016 Z"/>
  </g>
  <g id="Regular-M" transform="matrix(1 0 0 1 1394.06 1126)">
   <path d="M 55.8105 -57.9102 C 57.9102 -57.9102 59.668 -59.668 59.668 -61.7188 L 59.668 -75.9277 L 59.375 -83.252 L 62.6465 -79.7852 L 70.0684 -71.875 C 70.752 -71.0938 71.7773 -70.7031 72.7051 -70.7031 C 74.707 -70.7031 76.2695 -72.168 76.2695 -74.1699 C 76.2695 -75.1953 75.8301 -75.9766 75.0977 -76.709 L 58.5938 -92.627 C 57.6172 -93.6035 56.7871 -93.9453 55.8105 -93.9453 C 54.7852 -93.9453 53.9551 -93.6035 52.9785 -92.627 L 36.4746 -76.709 C 35.7422 -75.9766 35.3027 -75.1953 35.3027 -74.1699 C 35.3027 -72.168 36.7676 -70.7031 38.8184 -70.7031 C 39.7461 -70.7031 40.8203 -71.0938 41.5039 -71.875 L 48.9258 -79.7852 L 52.1973 -83.252 L 51.9043 -75.9277 L 51.9043 -61.7188 C 51.9043 -59.668 53.7109 -57.9102 55.8105 -57.9102 Z M 27.7832 16.2598 L 83.7891 16.2598 C 93.9941 16.2598 99.1211 11.1816 99.1211 1.12305 L 99.1211 -46.6309 C 99.1211 -56.6895 93.9941 -61.7676 83.7891 -61.7676 L 60.791 -61.7676 L 60.791 -25.7812 C 60.791 -23.0957 58.4961 -20.8984 55.8105 -20.8984 C 53.0762 -20.8984 50.7812 -23.0957 50.7812 -25.7812 L 50.7812 -61.7676 L 27.7832 -61.7676 C 17.5781 -61.7676 12.4512 -56.6895 12.4512 -46.6309 L 12.4512 1.12305 C 12.4512 11.1816 17.5781 16.2598 27.7832 16.2598 Z"/>
  </g>
  <g id="Light-M" transform="matrix(1 0 0 1 1098.18 1126)">
   <path d="M 54.9805 -59.3262 C 56.5918 -59.3262 57.959 -60.6445 57.959 -62.2559 L 57.959 -77.5879 L 57.7637 -84.668 L 62.1094 -80.1758 L 70.4102 -71.5332 C 70.9473 -70.9473 71.7285 -70.6543 72.4609 -70.6543 C 73.9746 -70.6543 75.1953 -71.7773 75.1953 -73.291 C 75.1953 -74.1211 74.8535 -74.707 74.3164 -75.293 L 57.1289 -92.0898 C 56.3965 -92.8223 55.7617 -93.0664 54.9805 -93.0664 C 54.1992 -93.0664 53.5645 -92.8223 52.832 -92.0898 L 35.6445 -75.293 C 35.0586 -74.707 34.7168 -74.1211 34.7168 -73.291 C 34.7168 -71.7773 35.8887 -70.6543 37.4512 -70.6543 C 38.1836 -70.6543 39.0137 -70.9473 39.5508 -71.5332 L 47.8516 -80.1758 L 52.1973 -84.668 L 52.002 -77.5879 L 52.002 -62.2559 C 52.002 -60.6445 53.3691 -59.3262 54.9805 -59.3262 Z M 26.8555 15.5273 L 83.0566 15.5273 C 92.5781 15.5273 97.4609 10.6445 97.4609 1.26953 L 97.4609 -47.998 C 97.4609 -57.4219 92.5781 -62.2559 83.0566 -62.2559 L 58.8867 -62.2559 L 58.8867 -25 C 58.8867 -22.9004 57.0801 -21.1426 54.9805 -21.1426 C 52.832 -21.1426 51.0254 -22.9004 51.0254 -25 L 51.0254 -62.2559 L 26.8555 -62.2559 C 17.334 -62.2559 12.4512 -57.4707 12.4512 -47.998 L 12.4512 1.26953 C 12.4512 10.6934 17.334 15.5273 26.8555 15.5273 Z"/>
  </g>
  <g id="Thin-M" transform="matrix(1 0 0 1 802.565 1126)">
   <path d="M 53.9062 -61.1816 C 54.8828 -61.1816 55.7129 -62.0117 55.7129 -62.9883 L 55.7129 -79.7363 L 55.6152 -86.5234 L 61.3281 -80.7129 L 70.8496 -71.0938 C 71.1914 -70.752 71.6797 -70.5078 72.1191 -70.5078 C 72.998 -70.5078 73.7793 -71.2891 73.7793 -72.168 C 73.7793 -72.6562 73.584 -72.998 73.2422 -73.3887 L 55.1758 -91.3086 C 54.7852 -91.748 54.3457 -91.8945 53.9062 -91.8945 C 53.4668 -91.8945 53.0273 -91.748 52.6367 -91.3086 L 34.5215 -73.3887 C 34.1797 -72.998 33.9844 -72.6562 33.9844 -72.168 C 33.9844 -71.2891 34.7168 -70.5078 35.5957 -70.5078 C 36.084 -70.5078 36.5723 -70.752 36.9141 -71.0938 L 46.3867 -80.7129 L 52.1973 -86.5723 L 52.0996 -79.7363 L 52.0996 -62.9883 C 52.0996 -62.0117 52.9297 -61.1816 53.9062 -61.1816 Z M 25.6348 14.5508 L 82.0801 14.5508 C 90.7227 14.5508 95.2637 9.96094 95.2637 1.41602 L 95.2637 -49.8535 C 95.2637 -58.3496 90.7227 -62.9883 82.0801 -62.9883 L 56.4453 -62.9883 L 56.4453 -23.9746 C 56.4453 -22.6074 55.2734 -21.4355 53.9062 -21.4355 C 52.5391 -21.4355 51.3672 -22.6074 51.3672 -23.9746 L 51.3672 -62.9883 L 25.6348 -62.9883 C 16.9922 -62.9883 12.4512 -58.4473 12.4512 -49.8535 L 12.4512 1.41602 C 12.4512 10.0586 16.9922 14.5508 25.6348 14.5508 Z"/>
  </g>
  <g id="Ultralight-M" transform="matrix(1 0 0 1 506.415 1126)">
   <path d="M 53.3691 -62.1582 C 54.0039 -62.1582 54.541 -62.6953 54.541 -63.3301 L 54.541 -80.8594 L 54.4922 -87.5 L 60.9863 -80.957 L 71.0449 -70.8984 C 71.2891 -70.6543 71.6797 -70.459 71.9727 -70.459 C 72.5098 -70.459 73.0469 -70.9961 73.0469 -71.6309 C 73.0469 -71.9238 72.9004 -72.168 72.6562 -72.4121 L 54.1992 -90.9668 C 53.9551 -91.1621 53.6621 -91.3086 53.3691 -91.3086 C 53.0762 -91.3086 52.7344 -91.1621 52.5391 -90.9668 L 33.9844 -72.4121 C 33.7402 -72.168 33.5938 -71.9238 33.5938 -71.6309 C 33.5938 -70.9961 34.082 -70.459 34.668 -70.459 C 35.0098 -70.459 35.3516 -70.6543 35.5957 -70.8984 L 45.6543 -80.957 L 52.1973 -87.5488 L 52.1484 -80.8594 L 52.1484 -63.3301 C 52.1484 -62.6953 52.6855 -62.1582 53.3691 -62.1582 Z M 25 14.0625 L 81.5918 14.0625 C 89.7949 14.0625 94.1406 9.57031 94.1406 1.51367 L 94.1406 -50.7812 C 94.1406 -58.8379 89.7949 -63.3301 81.5918 -63.3301 L 55.1758 -63.3301 L 55.1758 -23.4375 C 55.1758 -22.4609 54.2969 -21.6309 53.3691 -21.6309 C 52.3926 -21.6309 51.5625 -22.4609 51.5625 -23.4375 L 51.5625 -63.3301 L 25 -63.3301 C 16.7969 -63.3301 12.4512 -58.9844 12.4512 -50.7812 L 12.4512 1.51367 C 12.4512 9.7168 16.7969 14.0625 25 14.0625 Z"/>
  </g>
  <g id="Black-S" transform="matrix(1 0 0 1 2885.99 696)">
   <path d="M 47.6074 -48.6328 C 51.0254 -48.6328 53.6133 -51.416 53.6133 -54.5898 L 53.6133 -67.5293 L 53.0762 -72.998 L 54.4434 -69.6777 L 57.7148 -66.2109 C 58.6914 -65.1855 60.0098 -64.5508 61.5234 -64.5508 C 64.0137 -64.5508 66.5527 -66.5039 66.5527 -69.3848 C 66.5527 -70.8496 66.0156 -71.875 65.0391 -72.8516 L 52.5879 -84.7656 C 50.9766 -86.3281 49.2676 -86.9141 47.6074 -86.9141 C 45.9473 -86.9141 44.2383 -86.3281 42.627 -84.7656 L 30.1758 -72.8516 C 29.1992 -71.875 28.6621 -70.8496 28.6621 -69.3848 C 28.6621 -66.5039 31.2012 -64.5508 33.6914 -64.5508 C 35.2051 -64.5508 36.5234 -65.1855 37.5 -66.2109 L 40.7715 -69.6777 L 42.1387 -72.998 L 41.6016 -67.5293 L 41.6016 -54.5898 C 41.6016 -51.416 44.1895 -48.6328 47.6074 -48.6328 Z M 25 6.54297 L 69.8242 6.54297 C 79.3945 6.54297 85.0586 0.878906 85.0586 -8.69141 L 85.0586 -41.8457 C 85.0586 -51.416 79.3945 -57.0801 69.8242 -57.0801 L 55.0781 -57.0801 L 55.0781 -31.5918 C 55.0781 -27.4902 51.709 -24.1699 47.6074 -24.1699 C 43.5059 -24.1699 40.1367 -27.4902 40.1367 -31.5918 L 40.1367 -57.0801 L 25 -57.0801 C 15.4297 -57.0801 9.76562 -51.416 9.76562 -41.8457 L 9.76562 -8.69141 C 9.76562 0.878906 15.4297 6.54297 25 6.54297 Z"/>
  </g>
  <g id="Heavy-S" transform="matrix(1 0 0 1 2590.06 696)">
   <path d="M 46.7773 -49.5117 C 49.8535 -49.5117 52.1973 -52.002 52.1973 -54.834 L 52.1973 -67.2363 L 51.709 -72.8027 L 53.2715 -69.7266 L 57.0312 -65.7227 C 57.9102 -64.7461 59.1309 -64.209 60.498 -64.209 C 62.793 -64.209 65.0879 -66.0156 65.0879 -68.6035 C 65.0879 -69.9707 64.5508 -70.8984 63.6719 -71.8262 L 51.1719 -83.7402 C 49.7559 -85.1562 48.2422 -85.6934 46.7773 -85.6934 C 45.3125 -85.6934 43.7988 -85.1562 42.3828 -83.7402 L 29.8828 -71.8262 C 29.0039 -70.8984 28.5156 -69.9707 28.5156 -68.6035 C 28.5156 -66.0156 30.7617 -64.209 33.0566 -64.209 C 34.4238 -64.209 35.6445 -64.7461 36.5723 -65.7227 L 40.332 -69.7266 L 41.8457 -72.8027 L 41.3574 -67.2363 L 41.3574 -54.834 C 41.3574 -52.002 43.75 -49.5117 46.7773 -49.5117 Z M 24.3652 6.29883 L 68.9453 6.29883 C 78.2227 6.29883 83.4961 0.976562 83.4961 -8.25195 L 83.4961 -42.2363 C 83.4961 -51.4648 78.2227 -56.7871 68.9453 -56.7871 L 53.5156 -56.7871 L 53.5156 -30.8105 C 53.5156 -27.0996 50.4883 -24.1211 46.7773 -24.1211 C 43.0664 -24.1211 40.0391 -27.0996 40.0391 -30.8105 L 40.0391 -56.7871 L 24.3652 -56.7871 C 15.0879 -56.7871 9.76562 -51.4648 9.76562 -42.2363 L 9.76562 -8.25195 C 9.76562 0.976562 15.0879 6.29883 24.3652 6.29883 Z"/>
  </g>
  <g id="Bold-S" transform="matrix(1 0 0 1 2294.23 696)">
   <path d="M 45.8496 -50.4883 C 48.4863 -50.4883 50.5859 -52.6367 50.5859 -55.127 L 50.5859 -66.9434 L 50.1953 -72.5586 L 51.9043 -69.8242 L 56.25 -65.1367 C 57.0312 -64.3066 58.1055 -63.8184 59.3262 -63.8184 C 61.4746 -63.8184 63.4277 -65.4297 63.4277 -67.7734 C 63.4277 -68.9453 62.9395 -69.8242 62.1582 -70.6543 L 49.6094 -82.6172 C 48.3887 -83.8379 47.1191 -84.2773 45.8496 -84.2773 C 44.5801 -84.2773 43.3594 -83.8379 42.0898 -82.6172 L 29.5898 -70.6543 C 28.7598 -69.8242 28.3203 -68.9453 28.3203 -67.7734 C 28.3203 -65.4297 30.2246 -63.8184 32.373 -63.8184 C 33.5449 -63.8184 34.7168 -64.3066 35.498 -65.1367 L 39.7949 -69.8242 L 41.5527 -72.5586 L 41.1133 -66.9434 L 41.1133 -55.127 C 41.1133 -52.6367 43.2129 -50.4883 45.8496 -50.4883 Z M 23.6328 6.00586 L 67.9199 6.00586 C 76.8555 6.00586 81.7383 1.12305 81.7383 -7.76367 L 81.7383 -42.6758 C 81.7383 -51.5625 76.8555 -56.3965 67.9199 -56.3965 L 51.8066 -56.3965 L 51.8066 -29.8828 C 51.8066 -26.6602 49.1211 -24.0234 45.8496 -24.0234 C 42.627 -24.0234 39.8926 -26.6602 39.8926 -29.8828 L 39.8926 -56.3965 L 23.6328 -56.3965 C 14.6973 -56.3965 9.76562 -51.5625 9.76562 -42.6758 L 9.76562 -7.76367 C 9.76562 1.12305 14.6973 6.00586 23.6328 6.00586 Z"/>
  </g>
  <g id="Semibold-S" transform="matrix(1 0 0 1 1998.1 696)">
   <path d="M 45.2148 -51.123 C 47.6074 -51.123 49.5117 -53.0762 49.5117 -55.3711 L 49.5117 -66.6992 L 49.1211 -72.4121 L 50.9766 -69.873 L 55.6641 -64.7949 C 56.3965 -63.9648 57.4219 -63.5254 58.4961 -63.5254 C 60.5469 -63.5254 62.2559 -65.0391 62.2559 -67.1875 C 62.2559 -68.2617 61.8652 -69.0918 61.084 -69.8242 L 48.5352 -81.8359 C 47.4121 -82.959 46.3379 -83.3008 45.2148 -83.3008 C 44.0918 -83.3008 43.0176 -82.959 41.8945 -81.8359 L 29.3457 -69.8242 C 28.6133 -69.0918 28.1738 -68.2617 28.1738 -67.1875 C 28.1738 -65.0391 29.8828 -63.5254 31.9336 -63.5254 C 32.959 -63.5254 34.0332 -63.9648 34.7656 -64.7949 L 39.4531 -69.873 L 41.3086 -72.4121 L 40.9668 -66.6992 L 40.9668 -55.3711 C 40.9668 -53.0762 42.8711 -51.123 45.2148 -51.123 Z M 23.0957 5.81055 L 67.2363 5.81055 C 75.9277 5.81055 80.5664 1.2207 80.5664 -7.42188 L 80.5664 -42.9688 C 80.5664 -51.6113 75.9277 -56.1523 67.2363 -56.1523 L 50.6348 -56.1523 L 50.6348 -29.2969 C 50.6348 -26.3672 48.1445 -23.9746 45.2148 -23.9746 C 42.2852 -23.9746 39.8438 -26.3672 39.8438 -29.2969 L 39.8438 -56.1523 L 23.0957 -56.1523 C 14.4043 -56.1523 9.76562 -51.6113 9.76562 -42.9688 L 9.76562 -7.42188 C 9.76562 1.2207 14.4043 5.81055 23.0957 5.81055 Z"/>
  </g>
  <g id="Medium-S" transform="matrix(1 0 0 1 1701.85 696)">
   <path d="M 44.7266 -51.6602 C 46.875 -51.6602 48.6816 -53.418 48.6816 -55.5176 L 48.6816 -66.5527 L 48.3398 -72.3145 L 50.293 -69.873 L 55.2734 -64.502 C 55.957 -63.7207 56.9336 -63.3301 57.9102 -63.3301 C 59.8145 -63.3301 61.4258 -64.7461 61.4258 -66.6992 C 61.4258 -67.7246 60.9863 -68.5059 60.3027 -69.2383 L 47.7051 -81.25 C 46.6797 -82.2754 45.752 -82.6172 44.7266 -82.6172 C 43.7012 -82.6172 42.7734 -82.2754 41.748 -81.25 L 29.1992 -69.2383 C 28.4668 -68.5059 28.0762 -67.7246 28.0762 -66.6992 C 28.0762 -64.7461 29.5898 -63.3301 31.543 -63.3301 C 32.5195 -63.3301 33.5449 -63.7207 34.2285 -64.502 L 39.209 -69.873 L 41.1621 -72.3145 L 40.8203 -66.5527 L 40.8203 -55.5176 C 40.8203 -53.418 42.5781 -51.6602 44.7266 -51.6602 Z M 22.7051 5.66406 L 66.6992 5.66406 C 75.2441 5.66406 79.6387 1.26953 79.6387 -7.12891 L 79.6387 -43.1641 C 79.6387 -51.6113 75.2441 -56.0059 66.6992 -56.0059 L 49.707 -56.0059 L 49.707 -28.8086 C 49.707 -26.123 47.4609 -23.9258 44.7266 -23.9258 C 42.041 -23.9258 39.7461 -26.123 39.7461 -28.8086 L 39.7461 -56.0059 L 22.7051 -56.0059 C 14.209 -56.0059 9.76562 -51.6113 9.76562 -43.1641 L 9.76562 -7.12891 C 9.76562 1.31836 14.209 5.66406 22.7051 5.66406 Z"/>
  </g>
  <g id="Regular-S" transform="matrix(1 0 0 1 1405.73 696)">
   <path d="M 44.0918 -52.2949 C 45.9961 -52.2949 47.6074 -53.8574 47.6074 -55.7129 L 47.6074 -66.3086 L 47.3145 -72.168 L 49.3652 -69.9219 L 54.7363 -64.1113 C 55.3711 -63.4277 56.25 -63.0859 57.0801 -63.0859 C 58.9355 -63.0859 60.3027 -64.3555 60.3027 -66.1133 C 60.3027 -67.0898 59.9121 -67.7734 59.2285 -68.4082 L 46.6309 -80.4688 C 45.752 -81.3477 45.0195 -81.6406 44.0918 -81.6406 C 43.2129 -81.6406 42.4805 -81.3477 41.6016 -80.4688 L 28.9551 -68.4082 C 28.3203 -67.7734 27.9297 -67.0898 27.9297 -66.1133 C 27.9297 -64.3555 29.248 -63.0859 31.1035 -63.0859 C 31.9336 -63.0859 32.8613 -63.4277 33.4961 -64.1113 L 38.8672 -69.9219 L 40.918 -72.168 L 40.625 -66.3086 L 40.625 -55.7129 C 40.625 -53.8574 42.2363 -52.2949 44.0918 -52.2949 Z M 22.2168 5.46875 L 66.0156 5.46875 C 74.3652 5.46875 78.4668 1.36719 78.4668 -6.83594 L 78.4668 -43.457 C 78.4668 -51.6602 74.3652 -55.7617 66.0156 -55.7617 L 48.5352 -55.7617 L 48.5352 -28.2227 C 48.5352 -25.8301 46.5332 -23.877 44.0918 -23.877 C 41.6992 -23.877 39.6973 -25.8301 39.6973 -28.2227 L 39.6973 -55.7617 L 22.2168 -55.7617 C 13.916 -55.7617 9.76562 -51.6602 9.76562 -43.457 L 9.76562 -6.83594 C 9.76562 1.36719 13.916 5.46875 22.2168 5.46875 Z"/>
  </g>
  <g id="Light-S" transform="matrix(1 0 0 1 1109.75 696)">
   <path d="M 43.4082 -53.5645 C 44.8242 -53.5645 46.0938 -54.7852 46.0938 -56.2012 L 46.0938 -67.7734 L 45.8496 -73.3887 L 48.877 -70.2637 L 55.0293 -63.8184 C 55.5176 -63.2812 56.2012 -62.9883 56.8848 -62.9883 C 58.252 -62.9883 59.3262 -64.0137 59.3262 -65.3809 C 59.3262 -66.1133 59.0332 -66.6504 58.5449 -67.1387 L 45.3613 -79.9805 C 44.6777 -80.6641 44.0918 -80.8594 43.4082 -80.8594 C 42.7246 -80.8594 42.1387 -80.6641 41.4551 -79.9805 L 28.2227 -67.1387 C 27.7344 -66.6504 27.4414 -66.1133 27.4414 -65.3809 C 27.4414 -64.0137 28.4668 -62.9883 29.8828 -62.9883 C 30.5176 -62.9883 31.25 -63.2812 31.7383 -63.8184 L 37.8906 -70.2637 L 40.918 -73.4375 L 40.7227 -67.7734 L 40.7227 -56.2012 C 40.7227 -54.7852 41.9434 -53.5645 43.4082 -53.5645 Z M 21.3867 4.78516 L 65.332 4.78516 C 73.0957 4.78516 77.002 0.927734 77.002 -6.68945 L 77.002 -44.7266 C 77.002 -52.3438 73.0957 -56.2012 65.332 -56.2012 L 46.875 -56.2012 L 46.875 -27.4902 C 46.875 -25.6348 45.2637 -24.0723 43.4082 -24.0723 C 41.5039 -24.0723 39.8926 -25.6348 39.8926 -27.4902 L 39.8926 -56.2012 L 21.3867 -56.2012 C 13.6719 -56.2012 9.76562 -52.3438 9.76562 -44.7266 L 9.76562 -6.68945 C 9.76562 0.927734 13.6719 4.78516 21.3867 4.78516 Z"/>
  </g>
  <g id="Thin-S" transform="matrix(1 0 0 1 814.015 696)">
   <path d="M 42.4316 -55.2246 C 43.3594 -55.2246 44.0918 -55.957 44.0918 -56.8359 L 44.0918 -69.6777 L 43.9941 -75.0488 L 48.2422 -70.752 L 55.4199 -63.4277 C 55.7129 -63.0859 56.2012 -62.8906 56.5918 -62.8906 C 57.373 -62.8906 58.0566 -63.5742 58.0566 -64.4043 C 58.0566 -64.8438 57.9102 -65.1367 57.5684 -65.4785 L 43.6035 -79.3457 C 43.2617 -79.6875 42.8711 -79.834 42.4316 -79.834 C 42.041 -79.834 41.6504 -79.6875 41.2598 -79.3457 L 27.2949 -65.4785 C 26.9531 -65.1367 26.8066 -64.8438 26.8066 -64.4043 C 26.8066 -63.5742 27.4414 -62.8906 28.2715 -62.8906 C 28.6621 -62.8906 29.1504 -63.0859 29.4434 -63.4277 L 36.6211 -70.752 L 40.918 -75.0977 L 40.8203 -69.6777 L 40.8203 -56.8359 C 40.8203 -55.957 41.5527 -55.2246 42.4316 -55.2246 Z M 20.3125 3.95508 L 64.502 3.95508 C 71.4355 3.95508 75.0488 0.292969 75.0488 -6.54297 L 75.0488 -46.3379 C 75.0488 -53.1738 71.4355 -56.8359 64.502 -56.8359 L 44.6777 -56.8359 L 44.6777 -26.6113 C 44.6777 -25.3906 43.6523 -24.3652 42.4316 -24.3652 C 41.2598 -24.3652 40.1855 -25.3906 40.1855 -26.6113 L 40.1855 -56.8359 L 20.3125 -56.8359 C 13.3789 -56.8359 9.76562 -53.2227 9.76562 -46.3379 L 9.76562 -6.54297 C 9.76562 0.390625 13.3789 3.95508 20.3125 3.95508 Z"/>
  </g>
  <g id="Ultralight-S" transform="matrix(1 0 0 1 517.792 696)">
   <path d="M 41.9434 -56.0547 C 42.5781 -56.0547 43.0664 -56.543 43.0664 -57.1289 L 43.0664 -70.6543 L 43.0176 -75.9277 L 47.9004 -70.9961 L 55.6152 -63.2324 C 55.8105 -62.9883 56.1523 -62.8418 56.4453 -62.8418 C 56.9336 -62.8418 57.4219 -63.3301 57.4219 -63.8672 C 57.4219 -64.1602 57.3242 -64.4043 57.0801 -64.5996 L 42.7246 -79.0039 C 42.4805 -79.1992 42.2363 -79.2969 41.9434 -79.2969 C 41.6992 -79.2969 41.4062 -79.1992 41.1621 -79.0039 L 26.7578 -64.5996 C 26.5625 -64.4043 26.4648 -64.1602 26.4648 -63.8672 C 26.4648 -63.3301 26.9043 -62.8418 27.4414 -62.8418 C 27.6855 -62.8418 28.0273 -62.9883 28.2715 -63.2324 L 35.9863 -70.9961 L 40.918 -75.9766 L 40.8691 -70.6543 L 40.8691 -57.1289 C 40.8691 -56.543 41.3574 -56.0547 41.9434 -56.0547 Z M 19.7754 3.51562 L 64.0625 3.51562 C 70.6055 3.51562 74.0723 -0.0488281 74.0723 -6.44531 L 74.0723 -47.168 C 74.0723 -53.6133 70.6055 -57.1777 64.0625 -57.1777 L 43.5547 -57.1777 L 43.5547 -26.123 C 43.5547 -25.293 42.8223 -24.5117 41.9434 -24.5117 C 41.1133 -24.5117 40.332 -25.293 40.332 -26.123 L 40.332 -57.1777 L 19.7754 -57.1777 C 13.2324 -57.1777 9.76562 -53.7109 9.76562 -47.168 L 9.76562 -6.44531 C 9.76562 0.0488281 13.2324 3.51562 19.7754 3.51562 Z"/>
  </g>
 </g>
</svg>
